<svg fill="none" viewBox="0 0 31 27" xmlns="http://www.w3.org/2000/svg">
    <path d="m19.2859 3.24159c1.3349 0 1.6146-1.93738.2531-2.277629-.0867-.016119-.159-.027867-.2531-.027867h-8.0461c-1.3349 0-1.61457 1.937346-.2531 2.277586.0867.01612.159.02791.2531.02791zm4.1105-.00042c-1.3349 0-1.6146-1.93739-.2531-2.277634.0867-.01612.159-.027867.2531-.027867h2.3055c2.5037 0 4.6376 2.133821 4.6376 4.637551v2.30596c0 1.33486-1.9374 1.61453-2.2776.2531-.0162-.08669-.0279-.159-.0279-.2531 0-1.25295.2866-2.71327-.4906-3.73053-1.0944-1.28868-2.4258-.90748-4.147-.90748zm0 21.38073c-1.3349 0-1.6146 1.9374-.2531 2.2777.0867.0161.159.0278.2531.0278h2.3055c2.5037 0 4.6376-2.1338 4.6376-4.6375v-2.306c0-1.3348-1.9374-1.6145-2.2776-.2531-.0162.0867-.0279.159-.0279.2531 0 1.253.2866 2.7133-.4906 3.7306-1.0944 1.2886-2.4258.9074-4.147.9074zm-16.28144 0c1.33486 0 1.61458 1.9374.25314 2.2777-.08669.0161-.15904.0278-.25314.0278h-2.3055c-2.50372 0-4.637585-2.1338-4.637585-4.6375v-2.306c0-1.3348 1.937385-1.6145 2.277635-.2531.01612.0867.02786.159.02786.2531 0 1.253-.28663 2.7133.49059 3.7306 1.09437 1.2886 2.42572.9074 4.147.9074zm0-21.38031c1.33486 0 1.61458-1.93738.25314-2.277629-.08669-.016119-.15904-.027867-.25314-.027867h-2.3055c-2.50372 0-4.637585 2.133866-4.637585 4.637586v2.30593c0 1.33485 1.937385 1.61453 2.277635.2531.01612-.0867.02786-.159.02786-.2531 0-1.25295-.28663-2.71328.49059-3.73054 1.09437-1.28867 2.42572-.90748 4.147-.90748zm-4.63759 8.76851c0-1.3349-1.937337-1.6146-2.277586-.2531-.016119.0867-.027909.159-.027909.2531v3.866c0 1.3349 1.937385 1.6146 2.277635.2531.01612-.0867.02786-.159.02786-.2531zm8.76283 12.6001c-1.33483 0-1.61455 1.9373-.2531 2.2776.0867.0161.159.0279.2531.0279h8.0462c1.3348 0 1.6145-1.9374.2531-2.2776-.0867-.0162-.159-.0279-.2531-.0279zm16.8086-8.7345c0 1.3348 1.9373 1.6145 2.2776.2531.0161-.0867.0279-.159.0279-.2531v-3.8661c0-1.3348-1.9374-1.6145-2.2776-.2531-.0162.0867-.0279.159-.0279.2531z" fill="#2B5DFF"/>
</svg>