<svg enable-background="new 0 0 24 24" viewBox="0 0 24 24" xmlns="http://www.w3.org/2000/svg" fill="#0079C1">
    <path d="m3 20c-.3 0-.7-.2-.9-.5-.2-.5-.1-1.1.4-1.4.9-.5 1.6-1 2.2-1.6-.7-.7-1.7-1.8-1.7-3.5 0-1.3.4-2.4 1.1-3.2.5-.5 1.2-.8 1.9-.8 1.8 0 3 .7 3 4 0 1.3-.5 2.5-1.5 3.7.9 1.1 1.2 1.2 1.3 1.2 0 0 .1-.1.4-.4.6-1 1.1-1.8 1.4-2.4.2-.3.5-.6.9-.6s.7.2.9.6c1.3 2.9 2.6 2.9 3.1 2.9h2.5c.6 0 1 .4 1 1s-.4 1-1 1h-2.5c-1.6 0-3-.8-4-2.4-.2.3-.4.6-.6 1-.6.9-1.2 1.3-2 1.3-1 .1-2-.8-2.8-1.8-.7.6-1.6 1.2-2.6 1.8-.1.1-.3.1-.5.1zm3-9c-.1 0-.3.1-.5.2-.3.4-.5 1-.5 1.8 0 1 .5 1.6 1.1 2.2.6-.8.9-1.5.9-2.2 0-2-.3-2-1-2z"/>
    <path d="m18 20c-.3 0-.5-.1-.7-.3l-2-2c-.2-.2-.3-.4-.3-.7v-12c0-1.7 1.3-3 3-3s3 1.3 3 3v12c0 .3-.1.5-.3.7l-2 2c-.2.2-.4.3-.7.3zm-1-3.4 1 1 1-1v-11.6c0-.6-.4-1-1-1s-1 .4-1 1z"/>
    <path d="m20 8h-4c-.6 0-1-.4-1-1s.4-1 1-1h4c.6 0 1 .4 1 1s-.4 1-1 1z" />
</svg>